# xmcd
#
# Track frame offsets:
#  150
#  19073
#  33471
#  57661
#  70975
#  87283
#  104051
#  116225
#  134484
#  149742
#
# Disc length: 2194 seconds
#
# Revision: 0
# Processed by: cddbd v1.5.1PL2 Copyright (c) Steve Scherf et al.
# Submitted via: Collectorz.com_Music_Collector 6.11
#
DISCID=a108900a
DTITLE=Treanor, Dan - African Wind
DYEAR=2004
DGENRE=Blues
TTITLE0=Missing
TTITLE1=Tell Me Mama
TTITLE2=Love a Woman's Soul
TTITLE3=African Wind
TTITLE4=The Griot Man
TTITLE5=Cut With Dynmite
TTITLE6=Mississippi Fred's Dream
TTITLE7=You Shot The Gun
TTITLE8=From African Soul
TTITLE9=Mercy
EXTD=
EXTT0=
EXTT1=
EXTT2=
EXTT3=
EXTT4=
EXTT5=
EXTT6=
EXTT7=
EXTT8=
EXTT9=
PLAYORDER=
